#!OML:ASF H:\Terrain\Patient Classification 1\Animal1\Tuesday\Animal1.ASF
:FULLY-SPECIFIED
:DEGREES
2598
root 10.9609 16.6582 -10.9726 26.44 -2.02559 2.35564
lowerback 4.83823 0.330209 -0.357784
upperback -5.85944 0.40187 -0.141793
thorax -8.89353 0.214853 0.000541512
lowerneck -10.8069 -0.56951 -6.07002
upperneck 19.2387 -1.76488 10.4846
head 7.83187 -0.29927 4.3395
rclavicle 4.17448e-015 1.19271e-014
rhumerus -11.5912 14.1934 -83.9659
rradius 49.8994
rwrist 20.7082
rhand -41.5897 -1020.14
rfingers 7.12502
rthumb -14.4998 30.391
lclavicle 4.17448e-015 1.19271e-014
lhumerus -15.2272 -15.2571 88.2461
lradius 58.3018
lwrist -60.2105
lhand -25.0079 63.3179
lfingers 7.12502
lthumb 1.50393 1706.71
rfemur -39.6651 20.6508 10.572
rtibia 25.408
rfoot -15.3792 -37.4625
rtoes 20.4633
lfemur -39.3547 -27.3366 -1.50324
ltibia 17.3839
lfoot -12.3418 27.4892
ltoes 1.86885
2599
root 10.9618 16.6596 -10.9687 26.4201 -1.94644 2.22893
lowerback 4.76947 0.362822 -0.17398
upperback -5.82065 0.465958 -0.1042
thorax -8.80935 0.235741 -0.0700601
lowerneck -10.9653 -0.629955 -6.01632
upperneck 19.319 -1.84725 10.4288
head 7.89464 -0.334439 4.30681
rclavicle 1.88845e-015 8.34896e-015
rhumerus -11.6319 14.2251 -83.8632
rradius 50.0024
rwrist 20.2741
rhand -41.3552 -1019.69
rfingers 7.12502
rthumb -14.2739 30.8197
lclavicle 1.88845e-015 8.34896e-015
lhumerus -15.1754 -15.3727 88.29
lradius 58.3772
lwrist -60.1247
lhand -24.9949 63.3382
lfingers 7.12502
lthumb 1.5165 1706.69
rfemur -39.546 20.6553 10.7482
rtibia 25.3013
rfoot -15.2211 -37.4896
rtoes 20.5612
lfemur -39.3595 -27.3271 -1.38275
ltibia 17.4841
lfoot -12.4658 27.5054
ltoes 1.6696
2600
root 10.9636 16.6592 -10.9651 26.4077 -1.803 2.02084
lowerback 4.74248 0.361736 0.12775
upperback -5.81719 0.499739 -0.00177473
thorax -8.7879 0.236623 -0.134949
lowerneck -11.0261 -0.669631 -6.16244
upperneck 19.3085 -1.88402 10.4948
head 7.9071 -0.354901 4.35119
rclavicle -1.49089e-015 7.95139e-015
rhumerus -11.8031 14.4337 -83.7277
rradius 50.2371
rwrist 19.8732
rhand -41.3554 -1019.01
rfingers 7.12502
rthumb -14.2741 31.503
lclavicle -1.49089e-015 7.95139e-015
lhumerus -15.2179 -15.3963 88.3981
lradius 58.4912
lwrist -60.1482
lhand -24.9238 63.4638
lfingers 7.12502
lthumb 1.58519 1706.56
rfemur -39.4145 20.6545 11.025
rtibia 25.1782
rfoot -15.318 -37.4577
rtoes 20.945
lfemur -39.4358 -27.4056 -1.07303
ltibia 17.6247
lfoot -12.1278 27.5614
ltoes 0.202118
2601
root 10.9634 16.6541 -10.9705 26.4297 -1.74215 1.91767
lowerback 4.78359 0.370615 0.261589
upperback -5.85001 0.528814 0.0587025
thorax -8.8474 0.24432 -0.150132
lowerneck -10.9856 -0.681749 -6.37512
upperneck 19.2432 -1.90263 10.722
head 7.88265 -0.35997 4.46159
rclavicle -4.47266e-015 -4.77083e-015
rhumerus -11.8689 14.7274 -83.5572
rradius 50.3551
rwrist 19.6284
rhand -41.4726 -1019.92
rfingers 7.12502
rthumb -14.3871 30.5991
lclavicle -4.47266e-015 -4.77083e-015
lhumerus -15.3245 -15.3373 88.4778
lradius 58.6246
lwrist -60.2787
lhand -25.0462 63.3322
lfingers 7.12502
lthumb 1.46699 1706.69
rfemur -39.422 20.6597 11.141
rtibia 25.0896
rfoot -15.2543 -37.4324
rtoes 21.3069
lfemur -39.5992 -27.4844 -0.809048
ltibia 17.735
lfoot -12.1286 27.5169
ltoes -0.15951
2602
root 10.9624 16.6525 -10.9753 26.4629 -1.72975 1.85192
lowerback 4.75396 0.373486 0.328921
upperback -5.88513 0.541554 0.0936649
thorax -8.86797 0.247426 -0.152429
lowerneck -10.9622 -0.672337 -6.46469
upperneck 19.2823 -1.89935 10.835
head 7.89211 -0.35468 4.51706
rclavicle 3.37934e-015 -1.98785e-015
rhumerus -11.8707 15.0916 -83.3757
rradius 50.4326
rwrist 19.3185
rhand -41.2619 -1021.56
rfingers 7.12502
rthumb -14.184 28.943
lclavicle 3.37934e-015 -1.98785e-015
lhumerus -15.5466 -15.1692 88.5595
lradius 58.8751
lwrist -60.5567
lhand -25.2649 62.9068
lfingers 7.12502
lthumb 1.25569 1707.12
rfemur -39.4972 20.7083 11.1809
rtibia 25.0808
rfoot -15.2139 -37.4646
rtoes 21.4431
lfemur -39.6641 -27.3965 -0.739789
ltibia 17.7457
lfoot -12.5022 27.4065
ltoes 1.03555
2603
root 10.9626 16.6562 -10.973 26.5073 -1.81312 1.97469
lowerback 4.6477 0.380561 0.197605
upperback -5.91727 0.536551 0.062615
thorax -8.84108 0.252472 -0.110336
lowerneck -10.9258 -0.686653 -6.47359
upperneck 19.3004 -1.9195 10.8296
head 7.89334 -0.366137 4.51502
rclavicle 7.95139e-016 9.14409e-015
rhumerus -11.9823 15.3193 -83.2126
rradius 50.6389
rwrist 19.1822
rhand -41.117 -1022.19
rfingers 7.12502
rthumb -14.0444 28.3023
lclavicle 7.95139e-016 9.14409e-015
lhumerus -15.6987 -14.9585 88.6225
lradius 59.0046
lwrist -60.7031
lhand -25.5136 62.2697
lfingers 7.12502
lthumb 1.01548 1707.75
rfemur -39.5642 20.7096 10.9913
rtibia 25.0964
rfoot -15.3027 -37.4944
rtoes 20.8598
lfemur -39.6595 -27.2863 -0.985359
ltibia 17.7516
lfoot -12.4371 27.4583
ltoes 1.00427
2604
root 10.9632 16.6584 -10.9716 26.5933 -1.89168 2.15903
lowerback 4.55522 0.401019 0.00499581
upperback -5.94559 0.542762 0.00829984
thorax -8.81855 0.266161 -0.0599288
lowerneck -10.9069 -0.734814 -6.50591
upperneck 19.2165 -1.98868 10.899
head 7.86983 -0.396351 4.53501
rclavicle -7.25564e-015 0
rhumerus -12.0802 15.469 -83.0088
rradius 50.8359
rwrist 19.1414
rhand -41.1625 -1022.03
rfingers 7.12502
rthumb -14.0882 28.4714
lclavicle -7.25564e-015 0
lhumerus -15.5933 -15.0516 88.6034
lradius 58.9227
lwrist -60.4251
lhand -25.6491 62.043
lfingers 7.12502
lthumb 0.884702 1707.98
rfemur -39.6795 20.6482 10.733
rtibia 25.1113
rfoot -15.2344 -37.4836
rtoes 19.7757
lfemur -39.7532 -27.2957 -1.17065
ltibia 17.7626
lfoot -12.3674 27.5424
ltoes 0.922586
2605
root 10.963 16.6579 -10.9711 26.6581 -1.83276 2.05837
lowerback 4.47769 0.405627 0.12756
upperback -5.95321 0.562169 0.0397061
thorax -8.78013 0.268956 -0.0972029
lowerneck -10.8425 -0.747959 -6.50472
upperneck 19.071 -2.01873 10.9973
head 7.81388 -0.405004 4.5607
rclavicle -2.5842e-015 -1.19271e-015
rhumerus -12.115 15.7338 -82.808
rradius 50.9598
rwrist 18.9466
rhand -41.2634 -1021.94
rfingers 7.12502
rthumb -14.1854 28.5673
lclavicle -2.5842e-015 -1.19271e-015
lhumerus -15.4788 -15.4046 88.5792
lradius 58.8465
lwrist -60.1485
lhand -25.5506 62.4666
lfingers 7.12502
lthumb 0.979795 1707.56
rfemur -39.7659 20.5912 10.869
rtibia 25.1559
rfoot -14.8415 -37.5071
rtoes 19.5057
lfemur -39.8153 -27.297 -0.98529
ltibia 17.7119
lfoot -12.5083 27.5369
ltoes 1.37816
2606
root 10.9629 16.6569 -10.9705 26.6443 -1.8155 2.0075
lowerback 4.44599 0.403994 0.176371
upperback -5.95177 0.566278 0.0672336
thorax -8.75963 0.268876 -0.0957146
lowerneck -10.7914 -0.738853 -6.42595
upperneck 19.038 -2.0209 10.9967
head 7.79336 -0.402242 4.54525
rclavicle 2.28602e-015 -5.96354e-015
rhumerus -12.1442 15.983 -82.6308
rradius 51.1028
rwrist 18.8279
rhand -41.5555 -1021.9
rfingers 7.12502
rthumb -14.4669 28.6279
lclavicle 2.28602e-015 -5.96354e-015
lhumerus -15.8015 -15.1695 88.724
lradius 59.0673
lwrist -60.5223
lhand -25.467 62.4621
lfingers 7.12502
lthumb 1.06049 1707.56
rfemur -39.7509 20.5246 10.9906
rtibia 25.1967
rfoot -14.7134 -37.4618
rtoes 20.2569
lfemur -39.7909 -27.3454 -0.890369
ltibia 17.6656
lfoot -12.7126 27.5446
ltoes 1.65294
